<mxfile host="Electron" modified="2024-05-18T03:36:18.439Z" agent="Mozilla/5.0 (Windows NT 10.0; Win64; x64) AppleWebKit/537.36 (KHTML, like Gecko) draw.io/21.8.2 Chrome/114.0.5735.289 Electron/25.8.1 Safari/537.36" etag="hsg-NtPgn1BegpiP8ep5" version="21.8.2" type="device">
  <diagram id="R2lEEEUBdFMjLlhIrx00" name="Page-1">
    <mxGraphModel dx="3773" dy="2214" grid="1" gridSize="10" guides="1" tooltips="1" connect="1" arrows="1" fold="1" page="1" pageScale="1" pageWidth="850" pageHeight="1100" math="0" shadow="0" extFonts="Permanent Marker^https://fonts.googleapis.com/css?family=Permanent+Marker">
      <root>
        <mxCell id="0" />
        <mxCell id="1" parent="0" />
        <mxCell id="t5tFJBDSBiDaumVLV6JK-30" value="Customer&amp;nbsp;" style="whiteSpace=wrap;html=1;fontStyle=0;fillColor=#99FFFF;" parent="1" vertex="1">
          <mxGeometry x="70" y="280" width="130" height="60" as="geometry" />
        </mxCell>
        <mxCell id="t5tFJBDSBiDaumVLV6JK-32" value="fullName" style="ellipse;whiteSpace=wrap;html=1;" parent="1" vertex="1">
          <mxGeometry x="60" y="60" width="100" height="60" as="geometry" />
        </mxCell>
        <mxCell id="t5tFJBDSBiDaumVLV6JK-41" value="" style="endArrow=none;html=1;rounded=0;" parent="1" source="t5tFJBDSBiDaumVLV6JK-30" target="t5tFJBDSBiDaumVLV6JK-32" edge="1">
          <mxGeometry width="50" height="50" relative="1" as="geometry">
            <mxPoint x="250" y="320" as="sourcePoint" />
            <mxPoint x="300" y="270" as="targetPoint" />
          </mxGeometry>
        </mxCell>
        <mxCell id="t5tFJBDSBiDaumVLV6JK-44" value="" style="endArrow=none;html=1;rounded=0;" parent="1" source="t5tFJBDSBiDaumVLV6JK-30" target="t5tFJBDSBiDaumVLV6JK-54" edge="1">
          <mxGeometry width="50" height="50" relative="1" as="geometry">
            <mxPoint x="250" y="320" as="sourcePoint" />
            <mxPoint x="119.36122398019165" y="189.88979184153345" as="targetPoint" />
          </mxGeometry>
        </mxCell>
        <mxCell id="t5tFJBDSBiDaumVLV6JK-45" value="&lt;u&gt;userId&lt;/u&gt;" style="ellipse;whiteSpace=wrap;html=1;" parent="1" vertex="1">
          <mxGeometry x="-45" y="80" width="100" height="50" as="geometry" />
        </mxCell>
        <mxCell id="t5tFJBDSBiDaumVLV6JK-46" value="" style="endArrow=none;html=1;rounded=0;" parent="1" source="t5tFJBDSBiDaumVLV6JK-45" target="t5tFJBDSBiDaumVLV6JK-30" edge="1">
          <mxGeometry width="50" height="50" relative="1" as="geometry">
            <mxPoint x="130" y="330" as="sourcePoint" />
            <mxPoint x="180" y="280" as="targetPoint" />
          </mxGeometry>
        </mxCell>
        <mxCell id="t5tFJBDSBiDaumVLV6JK-47" value="Introduction" style="ellipse;whiteSpace=wrap;html=1;" parent="1" vertex="1">
          <mxGeometry x="235" y="150" width="100" height="60" as="geometry" />
        </mxCell>
        <mxCell id="t5tFJBDSBiDaumVLV6JK-52" value="" style="endArrow=none;html=1;rounded=0;" parent="1" source="t5tFJBDSBiDaumVLV6JK-30" target="t5tFJBDSBiDaumVLV6JK-47" edge="1">
          <mxGeometry width="50" height="50" relative="1" as="geometry">
            <mxPoint x="230" y="290" as="sourcePoint" />
            <mxPoint x="162.67847165951343" y="164.74543956264097" as="targetPoint" />
          </mxGeometry>
        </mxCell>
        <mxCell id="t5tFJBDSBiDaumVLV6JK-54" value="phoneNumber" style="ellipse;whiteSpace=wrap;html=1;align=center;fontStyle=0;" parent="1" vertex="1">
          <mxGeometry x="160" y="90" width="95" height="60" as="geometry" />
        </mxCell>
        <mxCell id="t5tFJBDSBiDaumVLV6JK-55" value="( address )" style="ellipse;whiteSpace=wrap;html=1;align=center;" parent="1" vertex="1">
          <mxGeometry x="-100" y="145" width="100" height="50" as="geometry" />
        </mxCell>
        <mxCell id="t5tFJBDSBiDaumVLV6JK-56" value="" style="endArrow=none;html=1;rounded=0;" parent="1" source="t5tFJBDSBiDaumVLV6JK-55" target="t5tFJBDSBiDaumVLV6JK-30" edge="1">
          <mxGeometry relative="1" as="geometry">
            <mxPoint x="130" y="360" as="sourcePoint" />
            <mxPoint x="290" y="360" as="targetPoint" />
          </mxGeometry>
        </mxCell>
        <mxCell id="t5tFJBDSBiDaumVLV6JK-57" value="email" style="ellipse;whiteSpace=wrap;html=1;align=center;" parent="1" vertex="1">
          <mxGeometry x="-110" y="230" width="90" height="50" as="geometry" />
        </mxCell>
        <mxCell id="t5tFJBDSBiDaumVLV6JK-59" value="" style="endArrow=none;html=1;rounded=0;" parent="1" source="t5tFJBDSBiDaumVLV6JK-30" target="t5tFJBDSBiDaumVLV6JK-57" edge="1">
          <mxGeometry relative="1" as="geometry">
            <mxPoint x="190" y="370" as="sourcePoint" />
            <mxPoint x="350" y="370" as="targetPoint" />
          </mxGeometry>
        </mxCell>
        <mxCell id="t5tFJBDSBiDaumVLV6JK-68" value="product" style="whiteSpace=wrap;html=1;align=center;fillColor=#99FFFF;" parent="1" vertex="1">
          <mxGeometry x="825" y="280" width="110" height="55" as="geometry" />
        </mxCell>
        <mxCell id="t5tFJBDSBiDaumVLV6JK-69" value="has" style="shape=rhombus;perimeter=rhombusPerimeter;whiteSpace=wrap;html=1;align=center;" parent="1" vertex="1">
          <mxGeometry x="450" y="230" width="140" height="60" as="geometry" />
        </mxCell>
        <mxCell id="t5tFJBDSBiDaumVLV6JK-73" value="productId" style="ellipse;whiteSpace=wrap;html=1;align=center;fontStyle=4;" parent="1" vertex="1">
          <mxGeometry x="640" y="160" width="120" height="60" as="geometry" />
        </mxCell>
        <mxCell id="t5tFJBDSBiDaumVLV6JK-74" value="Category&lt;span style=&quot;white-space: pre;&quot;&gt;&#x9;&lt;/span&gt;" style="rounded=0;whiteSpace=wrap;html=1;fillColor=#99FFFF;" parent="1" vertex="1">
          <mxGeometry x="820" y="765" width="120" height="60" as="geometry" />
        </mxCell>
        <mxCell id="t5tFJBDSBiDaumVLV6JK-75" value="categoryId&amp;nbsp;" style="ellipse;whiteSpace=wrap;html=1;" parent="1" vertex="1">
          <mxGeometry x="725" y="880" width="120" height="70" as="geometry" />
        </mxCell>
        <mxCell id="t5tFJBDSBiDaumVLV6JK-90" value="image" style="ellipse;shape=doubleEllipse;margin=3;whiteSpace=wrap;html=1;align=center;" parent="1" vertex="1">
          <mxGeometry x="730" y="90" width="110" height="60" as="geometry" />
        </mxCell>
        <mxCell id="t5tFJBDSBiDaumVLV6JK-91" value="" style="endArrow=none;html=1;rounded=0;" parent="1" source="t5tFJBDSBiDaumVLV6JK-68" target="t5tFJBDSBiDaumVLV6JK-90" edge="1">
          <mxGeometry width="50" height="50" relative="1" as="geometry">
            <mxPoint x="710" y="320" as="sourcePoint" />
            <mxPoint x="760" y="270" as="targetPoint" />
          </mxGeometry>
        </mxCell>
        <mxCell id="t5tFJBDSBiDaumVLV6JK-92" value="" style="endArrow=none;html=1;rounded=0;" parent="1" source="t5tFJBDSBiDaumVLV6JK-68" target="t5tFJBDSBiDaumVLV6JK-73" edge="1">
          <mxGeometry width="50" height="50" relative="1" as="geometry">
            <mxPoint x="710" y="320" as="sourcePoint" />
            <mxPoint x="760" y="270" as="targetPoint" />
          </mxGeometry>
        </mxCell>
        <mxCell id="t5tFJBDSBiDaumVLV6JK-94" value="name" style="ellipse;whiteSpace=wrap;html=1;align=center;" parent="1" vertex="1">
          <mxGeometry x="860" y="70" width="110" height="60" as="geometry" />
        </mxCell>
        <mxCell id="t5tFJBDSBiDaumVLV6JK-95" value="" style="endArrow=none;html=1;rounded=0;" parent="1" source="t5tFJBDSBiDaumVLV6JK-68" target="t5tFJBDSBiDaumVLV6JK-94" edge="1">
          <mxGeometry width="50" height="50" relative="1" as="geometry">
            <mxPoint x="710" y="320" as="sourcePoint" />
            <mxPoint x="760" y="270" as="targetPoint" />
          </mxGeometry>
        </mxCell>
        <mxCell id="t5tFJBDSBiDaumVLV6JK-96" value="price" style="ellipse;whiteSpace=wrap;html=1;align=center;" parent="1" vertex="1">
          <mxGeometry x="970" y="110" width="110" height="60" as="geometry" />
        </mxCell>
        <mxCell id="t5tFJBDSBiDaumVLV6JK-97" value="" style="endArrow=none;html=1;rounded=0;" parent="1" source="t5tFJBDSBiDaumVLV6JK-68" target="t5tFJBDSBiDaumVLV6JK-96" edge="1">
          <mxGeometry width="50" height="50" relative="1" as="geometry">
            <mxPoint x="830" y="310" as="sourcePoint" />
            <mxPoint x="880" y="260" as="targetPoint" />
          </mxGeometry>
        </mxCell>
        <mxCell id="t5tFJBDSBiDaumVLV6JK-102" value="" style="endArrow=none;html=1;rounded=0;" parent="1" source="t5tFJBDSBiDaumVLV6JK-68" target="t5tFJBDSBiDaumVLV6JK-130" edge="1">
          <mxGeometry width="50" height="50" relative="1" as="geometry">
            <mxPoint x="860" y="440" as="sourcePoint" />
            <mxPoint x="817.9571727078542" y="387.73835740942377" as="targetPoint" />
          </mxGeometry>
        </mxCell>
        <mxCell id="t5tFJBDSBiDaumVLV6JK-104" value="condition" style="ellipse;whiteSpace=wrap;html=1;align=center;" parent="1" vertex="1">
          <mxGeometry x="1040" y="175" width="110" height="60" as="geometry" />
        </mxCell>
        <mxCell id="t5tFJBDSBiDaumVLV6JK-105" value="cũ, mới" style="ellipse;shape=cloud;whiteSpace=wrap;html=1;" parent="1" vertex="1">
          <mxGeometry x="1155" y="150" width="120" height="80" as="geometry" />
        </mxCell>
        <mxCell id="t5tFJBDSBiDaumVLV6JK-106" value="" style="endArrow=none;html=1;rounded=0;" parent="1" source="t5tFJBDSBiDaumVLV6JK-68" target="t5tFJBDSBiDaumVLV6JK-104" edge="1">
          <mxGeometry width="50" height="50" relative="1" as="geometry">
            <mxPoint x="880" y="360" as="sourcePoint" />
            <mxPoint x="930" y="310" as="targetPoint" />
          </mxGeometry>
        </mxCell>
        <mxCell id="t5tFJBDSBiDaumVLV6JK-107" value="has" style="shape=rhombus;perimeter=rhombusPerimeter;whiteSpace=wrap;html=1;align=center;" parent="1" vertex="1">
          <mxGeometry x="820" y="550" width="120" height="60" as="geometry" />
        </mxCell>
        <mxCell id="t5tFJBDSBiDaumVLV6JK-110" value="name" style="ellipse;whiteSpace=wrap;html=1;" parent="1" vertex="1">
          <mxGeometry x="910" y="872.5" width="110" height="70" as="geometry" />
        </mxCell>
        <mxCell id="t5tFJBDSBiDaumVLV6JK-111" value="" style="endArrow=none;html=1;rounded=0;" parent="1" source="t5tFJBDSBiDaumVLV6JK-75" target="t5tFJBDSBiDaumVLV6JK-74" edge="1">
          <mxGeometry width="50" height="50" relative="1" as="geometry">
            <mxPoint x="780" y="812.5" as="sourcePoint" />
            <mxPoint x="830" y="762.5" as="targetPoint" />
          </mxGeometry>
        </mxCell>
        <mxCell id="t5tFJBDSBiDaumVLV6JK-112" value="" style="endArrow=none;html=1;rounded=0;" parent="1" source="t5tFJBDSBiDaumVLV6JK-74" target="t5tFJBDSBiDaumVLV6JK-110" edge="1">
          <mxGeometry width="50" height="50" relative="1" as="geometry">
            <mxPoint x="780" y="812.5" as="sourcePoint" />
            <mxPoint x="830" y="762.5" as="targetPoint" />
          </mxGeometry>
        </mxCell>
        <mxCell id="t5tFJBDSBiDaumVLV6JK-122" value="wistlish" style="shape=rhombus;perimeter=rhombusPerimeter;whiteSpace=wrap;html=1;align=center;" parent="1" vertex="1">
          <mxGeometry x="450" y="325" width="140" height="60" as="geometry" />
        </mxCell>
        <mxCell id="t5tFJBDSBiDaumVLV6JK-130" value="description" style="ellipse;whiteSpace=wrap;html=1;align=center;" parent="1" vertex="1">
          <mxGeometry x="1060" y="250" width="110" height="60" as="geometry" />
        </mxCell>
        <mxCell id="t5tFJBDSBiDaumVLV6JK-132" value="specificAddress" style="ellipse;whiteSpace=wrap;html=1;" parent="1" vertex="1">
          <mxGeometry x="-282.5" y="170" width="100" height="70" as="geometry" />
        </mxCell>
        <mxCell id="t5tFJBDSBiDaumVLV6JK-133" value="" style="endArrow=none;html=1;rounded=0;" parent="1" source="t5tFJBDSBiDaumVLV6JK-55" target="KGY4J5tKAI7SoR2hhrme-26" edge="1">
          <mxGeometry width="50" height="50" relative="1" as="geometry">
            <mxPoint x="-40" y="420" as="sourcePoint" />
            <mxPoint x="-161.0999999999999" y="29.200000000000045" as="targetPoint" />
          </mxGeometry>
        </mxCell>
        <mxCell id="t5tFJBDSBiDaumVLV6JK-134" value="" style="endArrow=none;html=1;rounded=0;" parent="1" source="t5tFJBDSBiDaumVLV6JK-132" target="t5tFJBDSBiDaumVLV6JK-55" edge="1">
          <mxGeometry width="50" height="50" relative="1" as="geometry">
            <mxPoint x="-40" y="420" as="sourcePoint" />
            <mxPoint x="10" y="370" as="targetPoint" />
          </mxGeometry>
        </mxCell>
        <mxCell id="t5tFJBDSBiDaumVLV6JK-137" value="" style="endArrow=none;html=1;rounded=0;" parent="1" source="KGY4J5tKAI7SoR2hhrme-29" target="t5tFJBDSBiDaumVLV6JK-55" edge="1">
          <mxGeometry width="50" height="50" relative="1" as="geometry">
            <mxPoint x="-172.40436963109232" y="116.48660839948025" as="sourcePoint" />
            <mxPoint x="100" y="460" as="targetPoint" />
          </mxGeometry>
        </mxCell>
        <mxCell id="t5tFJBDSBiDaumVLV6JK-140" value="Section" style="rounded=0;whiteSpace=wrap;html=1;fillColor=#99FFFF;" parent="1" vertex="1">
          <mxGeometry x="1430" y="770" width="120" height="60" as="geometry" />
        </mxCell>
        <mxCell id="t5tFJBDSBiDaumVLV6JK-141" value="sectioInd" style="ellipse;whiteSpace=wrap;html=1;fontStyle=4" parent="1" vertex="1">
          <mxGeometry x="1340" y="862.5" width="120" height="80" as="geometry" />
        </mxCell>
        <mxCell id="t5tFJBDSBiDaumVLV6JK-142" value="name" style="ellipse;whiteSpace=wrap;html=1;" parent="1" vertex="1">
          <mxGeometry x="1510" y="862.5" width="120" height="80" as="geometry" />
        </mxCell>
        <mxCell id="t5tFJBDSBiDaumVLV6JK-144" value="Has" style="shape=rhombus;perimeter=rhombusPerimeter;whiteSpace=wrap;html=1;align=center;" parent="1" vertex="1">
          <mxGeometry x="1120" y="770" width="120" height="60" as="geometry" />
        </mxCell>
        <mxCell id="t5tFJBDSBiDaumVLV6JK-147" value="" style="endArrow=none;html=1;rounded=0;" parent="1" source="t5tFJBDSBiDaumVLV6JK-141" target="t5tFJBDSBiDaumVLV6JK-140" edge="1">
          <mxGeometry width="50" height="50" relative="1" as="geometry">
            <mxPoint x="1150" y="889.6800000000001" as="sourcePoint" />
            <mxPoint x="1473.04" y="790" as="targetPoint" />
          </mxGeometry>
        </mxCell>
        <mxCell id="t5tFJBDSBiDaumVLV6JK-148" value="" style="endArrow=none;html=1;rounded=0;" parent="1" source="t5tFJBDSBiDaumVLV6JK-142" target="t5tFJBDSBiDaumVLV6JK-140" edge="1">
          <mxGeometry width="50" height="50" relative="1" as="geometry">
            <mxPoint x="1423.04" y="840" as="sourcePoint" />
            <mxPoint x="1473.04" y="790" as="targetPoint" />
          </mxGeometry>
        </mxCell>
        <mxCell id="4-ziWf9Bfg_vrUl05oPR-1" value="" style="endArrow=none;html=1;rounded=0;entryX=0;entryY=0.5;entryDx=0;entryDy=0;" parent="1" source="t5tFJBDSBiDaumVLV6JK-30" target="t5tFJBDSBiDaumVLV6JK-69" edge="1">
          <mxGeometry width="50" height="50" relative="1" as="geometry">
            <mxPoint x="520" y="390" as="sourcePoint" />
            <mxPoint x="570" y="340" as="targetPoint" />
          </mxGeometry>
        </mxCell>
        <mxCell id="4-ziWf9Bfg_vrUl05oPR-2" value="" style="endArrow=none;html=1;rounded=0;entryX=1;entryY=0.75;entryDx=0;entryDy=0;exitX=0;exitY=0.5;exitDx=0;exitDy=0;" parent="1" source="t5tFJBDSBiDaumVLV6JK-122" target="t5tFJBDSBiDaumVLV6JK-30" edge="1">
          <mxGeometry width="50" height="50" relative="1" as="geometry">
            <mxPoint x="520" y="390" as="sourcePoint" />
            <mxPoint x="570" y="340" as="targetPoint" />
          </mxGeometry>
        </mxCell>
        <mxCell id="4-ziWf9Bfg_vrUl05oPR-4" value="" style="endArrow=none;html=1;rounded=0;entryX=1;entryY=0.5;entryDx=0;entryDy=0;" parent="1" source="t5tFJBDSBiDaumVLV6JK-68" target="t5tFJBDSBiDaumVLV6JK-69" edge="1">
          <mxGeometry width="50" height="50" relative="1" as="geometry">
            <mxPoint x="520" y="390" as="sourcePoint" />
            <mxPoint x="570" y="340" as="targetPoint" />
          </mxGeometry>
        </mxCell>
        <mxCell id="4-ziWf9Bfg_vrUl05oPR-5" value="" style="endArrow=none;html=1;rounded=0;exitX=1;exitY=0.5;exitDx=0;exitDy=0;" parent="1" source="t5tFJBDSBiDaumVLV6JK-122" target="t5tFJBDSBiDaumVLV6JK-68" edge="1">
          <mxGeometry width="50" height="50" relative="1" as="geometry">
            <mxPoint x="520" y="390" as="sourcePoint" />
            <mxPoint x="570" y="340" as="targetPoint" />
          </mxGeometry>
        </mxCell>
        <mxCell id="4-ziWf9Bfg_vrUl05oPR-6" value="1" style="text;html=1;strokeColor=none;fillColor=none;align=center;verticalAlign=middle;whiteSpace=wrap;rounded=0;" parent="1" vertex="1">
          <mxGeometry x="220" y="265" width="60" height="30" as="geometry" />
        </mxCell>
        <mxCell id="4-ziWf9Bfg_vrUl05oPR-7" value="M" style="text;html=1;strokeColor=none;fillColor=none;align=center;verticalAlign=middle;whiteSpace=wrap;rounded=0;" parent="1" vertex="1">
          <mxGeometry x="710" y="260" width="60" height="30" as="geometry" />
        </mxCell>
        <mxCell id="4-ziWf9Bfg_vrUl05oPR-8" value="M" style="text;html=1;strokeColor=none;fillColor=none;align=center;verticalAlign=middle;whiteSpace=wrap;rounded=0;" parent="1" vertex="1">
          <mxGeometry x="680" y="340" width="60" height="30" as="geometry" />
        </mxCell>
        <mxCell id="4-ziWf9Bfg_vrUl05oPR-9" value="1" style="text;html=1;strokeColor=none;fillColor=none;align=center;verticalAlign=middle;whiteSpace=wrap;rounded=0;" parent="1" vertex="1">
          <mxGeometry x="210" y="335" width="60" height="30" as="geometry" />
        </mxCell>
        <mxCell id="4-ziWf9Bfg_vrUl05oPR-12" value="" style="endArrow=none;html=1;rounded=0;entryX=0.5;entryY=1;entryDx=0;entryDy=0;" parent="1" source="t5tFJBDSBiDaumVLV6JK-74" target="t5tFJBDSBiDaumVLV6JK-107" edge="1">
          <mxGeometry width="50" height="50" relative="1" as="geometry">
            <mxPoint x="880" y="560" as="sourcePoint" />
            <mxPoint x="930" y="510" as="targetPoint" />
          </mxGeometry>
        </mxCell>
        <mxCell id="4-ziWf9Bfg_vrUl05oPR-13" value="" style="endArrow=none;html=1;rounded=0;exitX=0.5;exitY=0;exitDx=0;exitDy=0;" parent="1" source="t5tFJBDSBiDaumVLV6JK-107" target="t5tFJBDSBiDaumVLV6JK-68" edge="1">
          <mxGeometry width="50" height="50" relative="1" as="geometry">
            <mxPoint x="880" y="560" as="sourcePoint" />
            <mxPoint x="930" y="510" as="targetPoint" />
          </mxGeometry>
        </mxCell>
        <mxCell id="4-ziWf9Bfg_vrUl05oPR-14" value="" style="endArrow=none;html=1;rounded=0;entryX=0;entryY=0.5;entryDx=0;entryDy=0;" parent="1" source="t5tFJBDSBiDaumVLV6JK-74" target="t5tFJBDSBiDaumVLV6JK-144" edge="1">
          <mxGeometry width="50" height="50" relative="1" as="geometry">
            <mxPoint x="1280" y="730" as="sourcePoint" />
            <mxPoint x="1330" y="680" as="targetPoint" />
          </mxGeometry>
        </mxCell>
        <mxCell id="4-ziWf9Bfg_vrUl05oPR-15" value="" style="endArrow=none;html=1;rounded=0;exitX=1;exitY=0.5;exitDx=0;exitDy=0;" parent="1" source="t5tFJBDSBiDaumVLV6JK-144" target="t5tFJBDSBiDaumVLV6JK-140" edge="1">
          <mxGeometry width="50" height="50" relative="1" as="geometry">
            <mxPoint x="1280" y="730" as="sourcePoint" />
            <mxPoint x="1330" y="680" as="targetPoint" />
          </mxGeometry>
        </mxCell>
        <mxCell id="4-ziWf9Bfg_vrUl05oPR-16" value="Order" style="rounded=0;whiteSpace=wrap;html=1;fillColor=#99FFFF;" parent="1" vertex="1">
          <mxGeometry x="62.5" y="760" width="135" height="70" as="geometry" />
        </mxCell>
        <mxCell id="4-ziWf9Bfg_vrUl05oPR-17" value="make" style="rhombus;whiteSpace=wrap;html=1;" parent="1" vertex="1">
          <mxGeometry x="70" y="525" width="120" height="60" as="geometry" />
        </mxCell>
        <mxCell id="4-ziWf9Bfg_vrUl05oPR-18" value="" style="endArrow=none;html=1;rounded=0;exitX=0.5;exitY=0;exitDx=0;exitDy=0;" parent="1" source="4-ziWf9Bfg_vrUl05oPR-17" target="t5tFJBDSBiDaumVLV6JK-30" edge="1">
          <mxGeometry width="50" height="50" relative="1" as="geometry">
            <mxPoint x="260" y="600" as="sourcePoint" />
            <mxPoint x="310" y="550" as="targetPoint" />
          </mxGeometry>
        </mxCell>
        <mxCell id="4-ziWf9Bfg_vrUl05oPR-19" value="" style="endArrow=none;html=1;rounded=0;entryX=0.5;entryY=1;entryDx=0;entryDy=0;" parent="1" source="4-ziWf9Bfg_vrUl05oPR-16" target="4-ziWf9Bfg_vrUl05oPR-17" edge="1">
          <mxGeometry width="50" height="50" relative="1" as="geometry">
            <mxPoint x="260" y="600" as="sourcePoint" />
            <mxPoint x="310" y="550" as="targetPoint" />
          </mxGeometry>
        </mxCell>
        <mxCell id="4-ziWf9Bfg_vrUl05oPR-20" value="status" style="ellipse;whiteSpace=wrap;html=1;" parent="1" vertex="1">
          <mxGeometry x="1060" y="330" width="120" height="60" as="geometry" />
        </mxCell>
        <mxCell id="4-ziWf9Bfg_vrUl05oPR-21" value="" style="endArrow=none;html=1;rounded=0;" parent="1" source="4-ziWf9Bfg_vrUl05oPR-20" target="t5tFJBDSBiDaumVLV6JK-68" edge="1">
          <mxGeometry width="50" height="50" relative="1" as="geometry">
            <mxPoint x="1070" y="410" as="sourcePoint" />
            <mxPoint x="1120" y="360" as="targetPoint" />
          </mxGeometry>
        </mxCell>
        <mxCell id="4-ziWf9Bfg_vrUl05oPR-22" value="đang chờ duyệt, &lt;br&gt;đã duyệt, &lt;br&gt;đã bị chặn" style="ellipse;shape=cloud;whiteSpace=wrap;html=1;" parent="1" vertex="1">
          <mxGeometry x="1180" y="290" width="145" height="130" as="geometry" />
        </mxCell>
        <mxCell id="4-ziWf9Bfg_vrUl05oPR-23" value="1" style="text;html=1;strokeColor=none;fillColor=none;align=center;verticalAlign=middle;whiteSpace=wrap;rounded=0;" parent="1" vertex="1">
          <mxGeometry x="1360" y="760" width="60" height="30" as="geometry" />
        </mxCell>
        <mxCell id="4-ziWf9Bfg_vrUl05oPR-24" value="M" style="text;html=1;strokeColor=none;fillColor=none;align=center;verticalAlign=middle;whiteSpace=wrap;rounded=0;" parent="1" vertex="1">
          <mxGeometry x="960" y="760" width="60" height="30" as="geometry" />
        </mxCell>
        <mxCell id="4-ziWf9Bfg_vrUl05oPR-25" value="createdDate" style="ellipse;whiteSpace=wrap;html=1;" parent="1" vertex="1">
          <mxGeometry x="1050" y="420" width="120" height="60" as="geometry" />
        </mxCell>
        <mxCell id="4-ziWf9Bfg_vrUl05oPR-26" value="" style="endArrow=none;html=1;rounded=0;" parent="1" source="4-ziWf9Bfg_vrUl05oPR-25" target="t5tFJBDSBiDaumVLV6JK-68" edge="1">
          <mxGeometry width="50" height="50" relative="1" as="geometry">
            <mxPoint x="980" y="470" as="sourcePoint" />
            <mxPoint x="1030" y="420" as="targetPoint" />
          </mxGeometry>
        </mxCell>
        <mxCell id="4-ziWf9Bfg_vrUl05oPR-27" value="M" style="text;html=1;strokeColor=none;fillColor=none;align=center;verticalAlign=middle;whiteSpace=wrap;rounded=0;" parent="1" vertex="1">
          <mxGeometry x="820" y="365" width="60" height="30" as="geometry" />
        </mxCell>
        <mxCell id="4-ziWf9Bfg_vrUl05oPR-28" value="1" style="text;html=1;strokeColor=none;fillColor=none;align=center;verticalAlign=middle;whiteSpace=wrap;rounded=0;" parent="1" vertex="1">
          <mxGeometry x="830" y="717.5" width="60" height="30" as="geometry" />
        </mxCell>
        <mxCell id="4-ziWf9Bfg_vrUl05oPR-29" value="orderId" style="ellipse;whiteSpace=wrap;html=1;fontStyle=4" parent="1" vertex="1">
          <mxGeometry x="-60" y="872.5" width="100" height="60" as="geometry" />
        </mxCell>
        <mxCell id="4-ziWf9Bfg_vrUl05oPR-30" value="" style="endArrow=none;html=1;rounded=0;" parent="1" source="4-ziWf9Bfg_vrUl05oPR-16" target="4-ziWf9Bfg_vrUl05oPR-29" edge="1">
          <mxGeometry width="50" height="50" relative="1" as="geometry">
            <mxPoint x="122.72" y="750" as="sourcePoint" />
            <mxPoint x="-40.00137724222694" y="789.7255860895914" as="targetPoint" />
          </mxGeometry>
        </mxCell>
        <mxCell id="4-ziWf9Bfg_vrUl05oPR-31" value="orderDate" style="ellipse;whiteSpace=wrap;html=1;" parent="1" vertex="1">
          <mxGeometry x="80" y="882.5" width="100" height="60" as="geometry" />
        </mxCell>
        <mxCell id="4-ziWf9Bfg_vrUl05oPR-32" value="" style="endArrow=none;html=1;rounded=0;" parent="1" source="4-ziWf9Bfg_vrUl05oPR-31" target="4-ziWf9Bfg_vrUl05oPR-16" edge="1">
          <mxGeometry width="50" height="50" relative="1" as="geometry">
            <mxPoint x="120" y="740" as="sourcePoint" />
            <mxPoint x="170" y="690" as="targetPoint" />
          </mxGeometry>
        </mxCell>
        <mxCell id="4-ziWf9Bfg_vrUl05oPR-33" value="totalPrice" style="ellipse;whiteSpace=wrap;html=1;" parent="1" vertex="1">
          <mxGeometry x="220" y="872.5" width="100" height="60" as="geometry" />
        </mxCell>
        <mxCell id="4-ziWf9Bfg_vrUl05oPR-34" value="" style="endArrow=none;html=1;rounded=0;" parent="1" source="4-ziWf9Bfg_vrUl05oPR-16" target="4-ziWf9Bfg_vrUl05oPR-33" edge="1">
          <mxGeometry width="50" height="50" relative="1" as="geometry">
            <mxPoint x="190" y="830" as="sourcePoint" />
            <mxPoint x="240" y="780" as="targetPoint" />
          </mxGeometry>
        </mxCell>
        <mxCell id="4-ziWf9Bfg_vrUl05oPR-35" value="Payment" style="rounded=0;whiteSpace=wrap;html=1;fillColor=#99FFFF;" parent="1" vertex="1">
          <mxGeometry x="-300" y="500" width="135" height="70" as="geometry" />
        </mxCell>
        <mxCell id="4-ziWf9Bfg_vrUl05oPR-36" value="Shipment&amp;nbsp;" style="rounded=0;whiteSpace=wrap;html=1;fillColor=#99FFFF;" parent="1" vertex="1">
          <mxGeometry x="-700" y="495" width="135" height="70" as="geometry" />
        </mxCell>
        <mxCell id="4-ziWf9Bfg_vrUl05oPR-37" value="make" style="rhombus;whiteSpace=wrap;html=1;" parent="1" vertex="1">
          <mxGeometry x="-112.5" y="395" width="125" height="65" as="geometry" />
        </mxCell>
        <mxCell id="4-ziWf9Bfg_vrUl05oPR-38" value="make" style="rhombus;whiteSpace=wrap;html=1;" parent="1" vertex="1">
          <mxGeometry x="-695" y="275" width="125" height="70" as="geometry" />
        </mxCell>
        <mxCell id="4-ziWf9Bfg_vrUl05oPR-39" value="" style="endArrow=none;html=1;rounded=0;" parent="1" source="4-ziWf9Bfg_vrUl05oPR-37" target="t5tFJBDSBiDaumVLV6JK-30" edge="1">
          <mxGeometry width="50" height="50" relative="1" as="geometry">
            <mxPoint x="230" y="570" as="sourcePoint" />
            <mxPoint x="280" y="520" as="targetPoint" />
          </mxGeometry>
        </mxCell>
        <mxCell id="4-ziWf9Bfg_vrUl05oPR-40" value="" style="endArrow=none;html=1;rounded=0;exitX=0.5;exitY=0;exitDx=0;exitDy=0;" parent="1" source="4-ziWf9Bfg_vrUl05oPR-35" target="4-ziWf9Bfg_vrUl05oPR-37" edge="1">
          <mxGeometry width="50" height="50" relative="1" as="geometry">
            <mxPoint x="350" y="575" as="sourcePoint" />
            <mxPoint x="400" y="525" as="targetPoint" />
            <Array as="points">
              <mxPoint x="-232" y="430" />
            </Array>
          </mxGeometry>
        </mxCell>
        <mxCell id="4-ziWf9Bfg_vrUl05oPR-41" value="" style="endArrow=none;html=1;rounded=0;" parent="1" source="4-ziWf9Bfg_vrUl05oPR-42" target="4-ziWf9Bfg_vrUl05oPR-35" edge="1">
          <mxGeometry width="50" height="50" relative="1" as="geometry">
            <mxPoint x="-50" y="745" as="sourcePoint" />
            <mxPoint x="400" y="525" as="targetPoint" />
            <Array as="points">
              <mxPoint x="-232" y="670" />
            </Array>
          </mxGeometry>
        </mxCell>
        <mxCell id="4-ziWf9Bfg_vrUl05oPR-42" value="for" style="rhombus;whiteSpace=wrap;html=1;" parent="1" vertex="1">
          <mxGeometry x="-112.5" y="640" width="130" height="70" as="geometry" />
        </mxCell>
        <mxCell id="4-ziWf9Bfg_vrUl05oPR-43" value="" style="endArrow=none;html=1;rounded=0;" parent="1" source="4-ziWf9Bfg_vrUl05oPR-16" target="4-ziWf9Bfg_vrUl05oPR-42" edge="1">
          <mxGeometry width="50" height="50" relative="1" as="geometry">
            <mxPoint x="110" y="680" as="sourcePoint" />
            <mxPoint x="160" y="630" as="targetPoint" />
          </mxGeometry>
        </mxCell>
        <mxCell id="4-ziWf9Bfg_vrUl05oPR-44" value="" style="endArrow=none;html=1;rounded=0;" parent="1" source="4-ziWf9Bfg_vrUl05oPR-38" target="t5tFJBDSBiDaumVLV6JK-30" edge="1">
          <mxGeometry width="50" height="50" relative="1" as="geometry">
            <mxPoint x="250" y="560" as="sourcePoint" />
            <mxPoint x="300" y="510" as="targetPoint" />
          </mxGeometry>
        </mxCell>
        <mxCell id="4-ziWf9Bfg_vrUl05oPR-45" value="" style="endArrow=none;html=1;rounded=0;" parent="1" source="4-ziWf9Bfg_vrUl05oPR-36" target="4-ziWf9Bfg_vrUl05oPR-38" edge="1">
          <mxGeometry width="50" height="50" relative="1" as="geometry">
            <mxPoint x="250" y="560" as="sourcePoint" />
            <mxPoint x="300" y="510" as="targetPoint" />
          </mxGeometry>
        </mxCell>
        <mxCell id="4-ziWf9Bfg_vrUl05oPR-46" value="for" style="rhombus;whiteSpace=wrap;html=1;" parent="1" vertex="1">
          <mxGeometry x="-700" y="760" width="130" height="70" as="geometry" />
        </mxCell>
        <mxCell id="4-ziWf9Bfg_vrUl05oPR-47" value="" style="endArrow=none;html=1;rounded=0;" parent="1" source="4-ziWf9Bfg_vrUl05oPR-16" target="4-ziWf9Bfg_vrUl05oPR-46" edge="1">
          <mxGeometry width="50" height="50" relative="1" as="geometry">
            <mxPoint x="-170" y="804.71" as="sourcePoint" />
            <mxPoint x="-200" y="804.71" as="targetPoint" />
          </mxGeometry>
        </mxCell>
        <mxCell id="4-ziWf9Bfg_vrUl05oPR-48" value="" style="endArrow=none;html=1;rounded=0;" parent="1" source="4-ziWf9Bfg_vrUl05oPR-46" target="4-ziWf9Bfg_vrUl05oPR-36" edge="1">
          <mxGeometry width="50" height="50" relative="1" as="geometry">
            <mxPoint x="-140" y="700" as="sourcePoint" />
            <mxPoint x="-90" y="650" as="targetPoint" />
          </mxGeometry>
        </mxCell>
        <mxCell id="4-ziWf9Bfg_vrUl05oPR-49" value="Contain" style="rhombus;whiteSpace=wrap;html=1;" parent="1" vertex="1">
          <mxGeometry x="520" y="590" width="140" height="80" as="geometry" />
        </mxCell>
        <mxCell id="4-ziWf9Bfg_vrUl05oPR-50" value="" style="endArrow=none;html=1;rounded=0;" parent="1" source="4-ziWf9Bfg_vrUl05oPR-16" target="4-ziWf9Bfg_vrUl05oPR-49" edge="1">
          <mxGeometry width="50" height="50" relative="1" as="geometry">
            <mxPoint x="460" y="760" as="sourcePoint" />
            <mxPoint x="510" y="710" as="targetPoint" />
            <Array as="points">
              <mxPoint x="470" y="795" />
            </Array>
          </mxGeometry>
        </mxCell>
        <mxCell id="4-ziWf9Bfg_vrUl05oPR-51" value="" style="endArrow=none;html=1;rounded=0;" parent="1" source="4-ziWf9Bfg_vrUl05oPR-49" target="t5tFJBDSBiDaumVLV6JK-68" edge="1">
          <mxGeometry width="50" height="50" relative="1" as="geometry">
            <mxPoint x="710" y="570" as="sourcePoint" />
            <mxPoint x="760" y="520" as="targetPoint" />
          </mxGeometry>
        </mxCell>
        <mxCell id="4-ziWf9Bfg_vrUl05oPR-52" value="1" style="text;html=1;strokeColor=none;fillColor=none;align=center;verticalAlign=middle;whiteSpace=wrap;rounded=0;" parent="1" vertex="1">
          <mxGeometry x="220" y="760" width="60" height="30" as="geometry" />
        </mxCell>
        <mxCell id="4-ziWf9Bfg_vrUl05oPR-53" value="M" style="text;html=1;strokeColor=none;fillColor=none;align=center;verticalAlign=middle;whiteSpace=wrap;rounded=0;" parent="1" vertex="1">
          <mxGeometry x="760" y="360" width="60" height="30" as="geometry" />
        </mxCell>
        <mxCell id="4-ziWf9Bfg_vrUl05oPR-55" value="paymentId" style="ellipse;whiteSpace=wrap;html=1;" parent="1" vertex="1">
          <mxGeometry x="-375" y="375" width="90" height="60" as="geometry" />
        </mxCell>
        <mxCell id="4-ziWf9Bfg_vrUl05oPR-56" value="" style="endArrow=none;html=1;rounded=0;" parent="1" source="4-ziWf9Bfg_vrUl05oPR-35" target="4-ziWf9Bfg_vrUl05oPR-55" edge="1">
          <mxGeometry width="50" height="50" relative="1" as="geometry">
            <mxPoint x="-290" y="480" as="sourcePoint" />
            <mxPoint x="-240" y="430" as="targetPoint" />
          </mxGeometry>
        </mxCell>
        <mxCell id="4-ziWf9Bfg_vrUl05oPR-57" value="paymentDate" style="ellipse;whiteSpace=wrap;html=1;" parent="1" vertex="1">
          <mxGeometry x="-460" y="440" width="90" height="60" as="geometry" />
        </mxCell>
        <mxCell id="4-ziWf9Bfg_vrUl05oPR-59" value="amount" style="ellipse;whiteSpace=wrap;html=1;" parent="1" vertex="1">
          <mxGeometry x="-400" y="610" width="90" height="60" as="geometry" />
        </mxCell>
        <mxCell id="4-ziWf9Bfg_vrUl05oPR-60" value="paymentType&amp;nbsp;" style="ellipse;whiteSpace=wrap;html=1;" parent="1" vertex="1">
          <mxGeometry x="-450" y="530" width="90" height="60" as="geometry" />
        </mxCell>
        <mxCell id="4-ziWf9Bfg_vrUl05oPR-61" value="" style="endArrow=none;html=1;rounded=0;" parent="1" source="4-ziWf9Bfg_vrUl05oPR-35" target="4-ziWf9Bfg_vrUl05oPR-57" edge="1">
          <mxGeometry width="50" height="50" relative="1" as="geometry">
            <mxPoint x="-260" y="560" as="sourcePoint" />
            <mxPoint x="-210" y="510" as="targetPoint" />
          </mxGeometry>
        </mxCell>
        <mxCell id="4-ziWf9Bfg_vrUl05oPR-62" value="" style="endArrow=none;html=1;rounded=0;" parent="1" source="4-ziWf9Bfg_vrUl05oPR-35" target="4-ziWf9Bfg_vrUl05oPR-60" edge="1">
          <mxGeometry width="50" height="50" relative="1" as="geometry">
            <mxPoint x="-260" y="560" as="sourcePoint" />
            <mxPoint x="-210" y="510" as="targetPoint" />
          </mxGeometry>
        </mxCell>
        <mxCell id="4-ziWf9Bfg_vrUl05oPR-63" value="" style="endArrow=none;html=1;rounded=0;" parent="1" source="4-ziWf9Bfg_vrUl05oPR-59" target="4-ziWf9Bfg_vrUl05oPR-35" edge="1">
          <mxGeometry width="50" height="50" relative="1" as="geometry">
            <mxPoint x="-260" y="560" as="sourcePoint" />
            <mxPoint x="-210" y="510" as="targetPoint" />
          </mxGeometry>
        </mxCell>
        <mxCell id="4-ziWf9Bfg_vrUl05oPR-64" value="1" style="text;html=1;strokeColor=none;fillColor=none;align=center;verticalAlign=middle;whiteSpace=wrap;rounded=0;" parent="1" vertex="1">
          <mxGeometry x="-10" y="345" width="60" height="30" as="geometry" />
        </mxCell>
        <mxCell id="4-ziWf9Bfg_vrUl05oPR-65" value="M" style="text;html=1;strokeColor=none;fillColor=none;align=center;verticalAlign=middle;whiteSpace=wrap;rounded=0;" parent="1" vertex="1">
          <mxGeometry x="-230" y="460" width="60" height="30" as="geometry" />
        </mxCell>
        <mxCell id="4-ziWf9Bfg_vrUl05oPR-66" value="1" style="text;html=1;strokeColor=none;fillColor=none;align=center;verticalAlign=middle;whiteSpace=wrap;rounded=0;" parent="1" vertex="1">
          <mxGeometry x="-230" y="580" width="60" height="30" as="geometry" />
        </mxCell>
        <mxCell id="4-ziWf9Bfg_vrUl05oPR-67" value="1" style="text;html=1;strokeColor=none;fillColor=none;align=center;verticalAlign=middle;whiteSpace=wrap;rounded=0;" parent="1" vertex="1">
          <mxGeometry x="30" y="710" width="60" height="30" as="geometry" />
        </mxCell>
        <mxCell id="4-ziWf9Bfg_vrUl05oPR-68" value="shipmentId&amp;nbsp;" style="ellipse;whiteSpace=wrap;html=1;" parent="1" vertex="1">
          <mxGeometry x="-830" y="375" width="90" height="60" as="geometry" />
        </mxCell>
        <mxCell id="4-ziWf9Bfg_vrUl05oPR-69" value="shipmentDate&amp;nbsp;" style="ellipse;whiteSpace=wrap;html=1;" parent="1" vertex="1">
          <mxGeometry x="-880" y="450" width="90" height="60" as="geometry" />
        </mxCell>
        <mxCell id="4-ziWf9Bfg_vrUl05oPR-70" value="1" style="text;html=1;strokeColor=none;fillColor=none;align=center;verticalAlign=middle;whiteSpace=wrap;rounded=0;" parent="1" vertex="1">
          <mxGeometry x="-60" y="310" width="60" height="30" as="geometry" />
        </mxCell>
        <mxCell id="4-ziWf9Bfg_vrUl05oPR-71" value="M" style="text;html=1;strokeColor=none;fillColor=none;align=center;verticalAlign=middle;whiteSpace=wrap;rounded=0;" parent="1" vertex="1">
          <mxGeometry x="-640" y="450" width="60" height="30" as="geometry" />
        </mxCell>
        <mxCell id="4-ziWf9Bfg_vrUl05oPR-72" value="1" style="text;html=1;strokeColor=none;fillColor=none;align=center;verticalAlign=middle;whiteSpace=wrap;rounded=0;" parent="1" vertex="1">
          <mxGeometry x="-640" y="590" width="60" height="30" as="geometry" />
        </mxCell>
        <mxCell id="4-ziWf9Bfg_vrUl05oPR-73" value="1" style="text;html=1;strokeColor=none;fillColor=none;align=center;verticalAlign=middle;whiteSpace=wrap;rounded=0;" parent="1" vertex="1">
          <mxGeometry x="-47.5" y="760" width="60" height="30" as="geometry" />
        </mxCell>
        <mxCell id="4-ziWf9Bfg_vrUl05oPR-74" value="address" style="ellipse;whiteSpace=wrap;html=1;" parent="1" vertex="1">
          <mxGeometry x="-890" y="525" width="90" height="60" as="geometry" />
        </mxCell>
        <mxCell id="4-ziWf9Bfg_vrUl05oPR-75" value="trackingCode" style="ellipse;whiteSpace=wrap;html=1;" parent="1" vertex="1">
          <mxGeometry x="-840" y="600" width="90" height="60" as="geometry" />
        </mxCell>
        <mxCell id="4-ziWf9Bfg_vrUl05oPR-76" value="" style="endArrow=none;html=1;rounded=0;" parent="1" source="4-ziWf9Bfg_vrUl05oPR-36" target="4-ziWf9Bfg_vrUl05oPR-68" edge="1">
          <mxGeometry width="50" height="50" relative="1" as="geometry">
            <mxPoint x="-690" y="560" as="sourcePoint" />
            <mxPoint x="-640" y="510" as="targetPoint" />
          </mxGeometry>
        </mxCell>
        <mxCell id="4-ziWf9Bfg_vrUl05oPR-77" value="" style="endArrow=none;html=1;rounded=0;" parent="1" source="4-ziWf9Bfg_vrUl05oPR-36" target="4-ziWf9Bfg_vrUl05oPR-69" edge="1">
          <mxGeometry width="50" height="50" relative="1" as="geometry">
            <mxPoint x="-690" y="560" as="sourcePoint" />
            <mxPoint x="-640" y="510" as="targetPoint" />
          </mxGeometry>
        </mxCell>
        <mxCell id="4-ziWf9Bfg_vrUl05oPR-78" value="" style="endArrow=none;html=1;rounded=0;" parent="1" source="4-ziWf9Bfg_vrUl05oPR-36" target="4-ziWf9Bfg_vrUl05oPR-74" edge="1">
          <mxGeometry width="50" height="50" relative="1" as="geometry">
            <mxPoint x="-690" y="560" as="sourcePoint" />
            <mxPoint x="-640" y="510" as="targetPoint" />
          </mxGeometry>
        </mxCell>
        <mxCell id="4-ziWf9Bfg_vrUl05oPR-79" value="" style="endArrow=none;html=1;rounded=0;" parent="1" source="4-ziWf9Bfg_vrUl05oPR-75" target="4-ziWf9Bfg_vrUl05oPR-36" edge="1">
          <mxGeometry width="50" height="50" relative="1" as="geometry">
            <mxPoint x="-690" y="560" as="sourcePoint" />
            <mxPoint x="-640" y="510" as="targetPoint" />
          </mxGeometry>
        </mxCell>
        <mxCell id="4-ziWf9Bfg_vrUl05oPR-80" value="price" style="ellipse;whiteSpace=wrap;html=1;align=center;" parent="1" vertex="1">
          <mxGeometry x="465" y="480" width="110" height="60" as="geometry" />
        </mxCell>
        <mxCell id="4-ziWf9Bfg_vrUl05oPR-81" value="" style="endArrow=none;html=1;rounded=0;" parent="1" source="4-ziWf9Bfg_vrUl05oPR-80" target="4-ziWf9Bfg_vrUl05oPR-49" edge="1">
          <mxGeometry width="50" height="50" relative="1" as="geometry">
            <mxPoint x="640" y="450" as="sourcePoint" />
            <mxPoint x="690" y="400" as="targetPoint" />
          </mxGeometry>
        </mxCell>
        <mxCell id="KGY4J5tKAI7SoR2hhrme-2" value="quantity" style="ellipse;whiteSpace=wrap;html=1;align=center;" vertex="1" parent="1">
          <mxGeometry x="370" y="560" width="110" height="60" as="geometry" />
        </mxCell>
        <mxCell id="KGY4J5tKAI7SoR2hhrme-3" value="" style="endArrow=none;html=1;rounded=0;" edge="1" parent="1" source="4-ziWf9Bfg_vrUl05oPR-49" target="KGY4J5tKAI7SoR2hhrme-2">
          <mxGeometry width="50" height="50" relative="1" as="geometry">
            <mxPoint x="540" y="620" as="sourcePoint" />
            <mxPoint x="590" y="570" as="targetPoint" />
          </mxGeometry>
        </mxCell>
        <mxCell id="KGY4J5tKAI7SoR2hhrme-4" value="quantity" style="ellipse;whiteSpace=wrap;html=1;" vertex="1" parent="1">
          <mxGeometry x="1010" y="500" width="120" height="60" as="geometry" />
        </mxCell>
        <mxCell id="KGY4J5tKAI7SoR2hhrme-5" value="" style="endArrow=none;html=1;rounded=0;" edge="1" parent="1" source="KGY4J5tKAI7SoR2hhrme-4" target="t5tFJBDSBiDaumVLV6JK-68">
          <mxGeometry width="50" height="50" relative="1" as="geometry">
            <mxPoint x="1079" y="438" as="sourcePoint" />
            <mxPoint x="936" y="360" as="targetPoint" />
          </mxGeometry>
        </mxCell>
        <mxCell id="KGY4J5tKAI7SoR2hhrme-7" value="1" style="text;html=1;strokeColor=none;fillColor=none;align=center;verticalAlign=middle;whiteSpace=wrap;rounded=0;" vertex="1" parent="1">
          <mxGeometry x="137.5" y="360" width="60" height="30" as="geometry" />
        </mxCell>
        <mxCell id="KGY4J5tKAI7SoR2hhrme-8" value="M" style="text;html=1;strokeColor=none;fillColor=none;align=center;verticalAlign=middle;whiteSpace=wrap;rounded=0;" vertex="1" parent="1">
          <mxGeometry x="130" y="700" width="60" height="30" as="geometry" />
        </mxCell>
        <mxCell id="KGY4J5tKAI7SoR2hhrme-9" value="City" style="whiteSpace=wrap;html=1;fontStyle=0;fillColor=#99FFFF;" vertex="1" parent="1">
          <mxGeometry x="-515" y="-170" width="130" height="60" as="geometry" />
        </mxCell>
        <mxCell id="KGY4J5tKAI7SoR2hhrme-10" value="District" style="whiteSpace=wrap;html=1;fontStyle=0;fillColor=#99FFFF;" vertex="1" parent="1">
          <mxGeometry x="-515" y="55" width="130" height="60" as="geometry" />
        </mxCell>
        <mxCell id="KGY4J5tKAI7SoR2hhrme-11" value="cityId" style="ellipse;whiteSpace=wrap;html=1;" vertex="1" parent="1">
          <mxGeometry x="-640" y="-250" width="100" height="60" as="geometry" />
        </mxCell>
        <mxCell id="KGY4J5tKAI7SoR2hhrme-12" value="districtId" style="ellipse;whiteSpace=wrap;html=1;" vertex="1" parent="1">
          <mxGeometry x="-670" y="65" width="100" height="60" as="geometry" />
        </mxCell>
        <mxCell id="KGY4J5tKAI7SoR2hhrme-13" value="name" style="ellipse;whiteSpace=wrap;html=1;" vertex="1" parent="1">
          <mxGeometry x="-630" y="145" width="100" height="60" as="geometry" />
        </mxCell>
        <mxCell id="KGY4J5tKAI7SoR2hhrme-14" value="name" style="ellipse;whiteSpace=wrap;html=1;" vertex="1" parent="1">
          <mxGeometry x="-680" y="-160" width="100" height="60" as="geometry" />
        </mxCell>
        <mxCell id="KGY4J5tKAI7SoR2hhrme-15" value="" style="endArrow=none;html=1;rounded=0;" edge="1" parent="1" source="KGY4J5tKAI7SoR2hhrme-9" target="KGY4J5tKAI7SoR2hhrme-11">
          <mxGeometry width="50" height="50" relative="1" as="geometry">
            <mxPoint x="-290" y="-20" as="sourcePoint" />
            <mxPoint x="-240" y="-70" as="targetPoint" />
          </mxGeometry>
        </mxCell>
        <mxCell id="KGY4J5tKAI7SoR2hhrme-16" value="" style="endArrow=none;html=1;rounded=0;" edge="1" parent="1" source="KGY4J5tKAI7SoR2hhrme-9" target="KGY4J5tKAI7SoR2hhrme-14">
          <mxGeometry width="50" height="50" relative="1" as="geometry">
            <mxPoint x="-290" y="-20" as="sourcePoint" />
            <mxPoint x="-240" y="-70" as="targetPoint" />
          </mxGeometry>
        </mxCell>
        <mxCell id="KGY4J5tKAI7SoR2hhrme-17" value="" style="endArrow=none;html=1;rounded=0;" edge="1" parent="1" source="KGY4J5tKAI7SoR2hhrme-10" target="KGY4J5tKAI7SoR2hhrme-12">
          <mxGeometry width="50" height="50" relative="1" as="geometry">
            <mxPoint x="-290" y="5" as="sourcePoint" />
            <mxPoint x="-240" y="-45" as="targetPoint" />
          </mxGeometry>
        </mxCell>
        <mxCell id="KGY4J5tKAI7SoR2hhrme-18" value="" style="endArrow=none;html=1;rounded=0;" edge="1" parent="1" source="KGY4J5tKAI7SoR2hhrme-13" target="KGY4J5tKAI7SoR2hhrme-10">
          <mxGeometry width="50" height="50" relative="1" as="geometry">
            <mxPoint x="-290" y="5" as="sourcePoint" />
            <mxPoint x="-430" y="75" as="targetPoint" />
          </mxGeometry>
        </mxCell>
        <mxCell id="KGY4J5tKAI7SoR2hhrme-20" value="has" style="shape=rhombus;perimeter=rhombusPerimeter;whiteSpace=wrap;html=1;align=center;" vertex="1" parent="1">
          <mxGeometry x="-510" y="-50" width="120" height="60" as="geometry" />
        </mxCell>
        <mxCell id="KGY4J5tKAI7SoR2hhrme-21" value="" style="endArrow=none;html=1;rounded=0;" edge="1" parent="1" source="KGY4J5tKAI7SoR2hhrme-20" target="KGY4J5tKAI7SoR2hhrme-9">
          <mxGeometry width="50" height="50" relative="1" as="geometry">
            <mxPoint x="-320" y="100" as="sourcePoint" />
            <mxPoint x="-270" y="50" as="targetPoint" />
          </mxGeometry>
        </mxCell>
        <mxCell id="KGY4J5tKAI7SoR2hhrme-22" value="" style="endArrow=none;html=1;rounded=0;entryX=0.5;entryY=1;entryDx=0;entryDy=0;" edge="1" parent="1" source="KGY4J5tKAI7SoR2hhrme-10" target="KGY4J5tKAI7SoR2hhrme-20">
          <mxGeometry width="50" height="50" relative="1" as="geometry">
            <mxPoint x="-320" y="100" as="sourcePoint" />
            <mxPoint x="-270" y="50" as="targetPoint" />
          </mxGeometry>
        </mxCell>
        <mxCell id="KGY4J5tKAI7SoR2hhrme-23" value="1" style="text;html=1;strokeColor=none;fillColor=none;align=center;verticalAlign=middle;whiteSpace=wrap;rounded=0;" vertex="1" parent="1">
          <mxGeometry x="-50" y="320" width="60" height="30" as="geometry" />
        </mxCell>
        <mxCell id="KGY4J5tKAI7SoR2hhrme-24" value="1" style="text;html=1;strokeColor=none;fillColor=none;align=center;verticalAlign=middle;whiteSpace=wrap;rounded=0;" vertex="1" parent="1">
          <mxGeometry x="-450" y="-110" width="60" height="30" as="geometry" />
        </mxCell>
        <mxCell id="KGY4J5tKAI7SoR2hhrme-25" value="M" style="text;html=1;strokeColor=none;fillColor=none;align=center;verticalAlign=middle;whiteSpace=wrap;rounded=0;" vertex="1" parent="1">
          <mxGeometry x="-450" y="20" width="60" height="30" as="geometry" />
        </mxCell>
        <mxCell id="KGY4J5tKAI7SoR2hhrme-26" value="In" style="rhombus;whiteSpace=wrap;html=1;" vertex="1" parent="1">
          <mxGeometry x="-285" y="-20" width="120" height="60" as="geometry" />
        </mxCell>
        <mxCell id="KGY4J5tKAI7SoR2hhrme-28" value="" style="endArrow=none;html=1;rounded=0;" edge="1" parent="1" source="KGY4J5tKAI7SoR2hhrme-9" target="KGY4J5tKAI7SoR2hhrme-26">
          <mxGeometry width="50" height="50" relative="1" as="geometry">
            <mxPoint x="-200" y="120" as="sourcePoint" />
            <mxPoint x="-150" y="70" as="targetPoint" />
          </mxGeometry>
        </mxCell>
        <mxCell id="KGY4J5tKAI7SoR2hhrme-29" value="In" style="rhombus;whiteSpace=wrap;html=1;" vertex="1" parent="1">
          <mxGeometry x="-300" y="90" width="120" height="60" as="geometry" />
        </mxCell>
        <mxCell id="KGY4J5tKAI7SoR2hhrme-30" value="" style="endArrow=none;html=1;rounded=0;" edge="1" parent="1" source="KGY4J5tKAI7SoR2hhrme-29" target="KGY4J5tKAI7SoR2hhrme-10">
          <mxGeometry width="50" height="50" relative="1" as="geometry">
            <mxPoint x="-200" y="120" as="sourcePoint" />
            <mxPoint x="-150" y="70" as="targetPoint" />
          </mxGeometry>
        </mxCell>
        <mxCell id="KGY4J5tKAI7SoR2hhrme-31" value="1" style="text;html=1;align=center;verticalAlign=middle;resizable=0;points=[];autosize=1;strokeColor=none;fillColor=none;" vertex="1" parent="1">
          <mxGeometry x="-100" y="80" width="30" height="30" as="geometry" />
        </mxCell>
        <mxCell id="KGY4J5tKAI7SoR2hhrme-32" value="1" style="text;html=1;align=center;verticalAlign=middle;resizable=0;points=[];autosize=1;strokeColor=none;fillColor=none;" vertex="1" parent="1">
          <mxGeometry x="-165" y="110" width="30" height="30" as="geometry" />
        </mxCell>
        <mxCell id="KGY4J5tKAI7SoR2hhrme-33" value="1" style="text;html=1;align=center;verticalAlign=middle;resizable=0;points=[];autosize=1;strokeColor=none;fillColor=none;" vertex="1" parent="1">
          <mxGeometry x="-350" y="-100" width="30" height="30" as="geometry" />
        </mxCell>
        <mxCell id="KGY4J5tKAI7SoR2hhrme-34" value="1" style="text;html=1;align=center;verticalAlign=middle;resizable=0;points=[];autosize=1;strokeColor=none;fillColor=none;" vertex="1" parent="1">
          <mxGeometry x="-370" y="70" width="30" height="30" as="geometry" />
        </mxCell>
      </root>
    </mxGraphModel>
  </diagram>
</mxfile>
